<mxfile host="app.diagrams.net" modified="2024-06-23T08:18:12.103Z" agent="Mozilla/5.0 (Windows NT 10.0; Win64; x64) AppleWebKit/537.36 (KHTML, like Gecko) Chrome/126.0.0.0 Safari/537.36" version="24.6.2" etag="Z-DYamfKWYAvT7EDmQvR" type="github">
  <diagram name="Page-1" id="EAnDK9thnIqwVCCWBC5Q">
    <mxGraphModel>
      <root>
        <mxCell id="0" />
        <mxCell id="1" parent="0" />
      </root>
    </mxGraphModel>
  </diagram>
</mxfile>
